# xmcd
#
# Track frame offsets:
#	150
#	17110
#	31702
#	55902
#	68131
#	91923
#	114259
#	133588
#	149108
#	168188
#	181998
#	200536
#
# Disc length: 2845 seconds
#
# Revision: 1
# Processed by: cddbd v1.5.2PL0 Copyright (c) Steve Scherf et al.
# Submitted via: audiograbber 1.83.01
#
DISCID=a10b1b0c
DTITLE=Keb Mo - Keep It Simple
DYEAR=2004
DGENRE=
TTITLE0=France 
TTITLE1=Let Your Light Shine
TTITLE2=One Friend
TTITLE3=Shave Yo' Legs
TTITLE4=Prosperity Blues 
TTITLE5=Closer 
TTITLE6=Keep It Simple
TTITLE7=Riley B. King 
TTITLE8=House In California 
TTITLE9=Walk Back In 
TTITLE10=I'm Amazing 
TTITLE11=Proving You Wrong 
EXTD=
EXTT0=
EXTT1=
EXTT2=
EXTT3=
EXTT4=
EXTT5=
EXTT6=
EXTT7=
EXTT8=
EXTT9=
EXTT10=
EXTT11=
PLAYORDER=
